<svg version="1.1" id="Layer_1" xmlns="http://www.w3.org/2000/svg" xmlns:xlink="http://www.w3.org/1999/xlink" x="0px" y="0px"
	 width="100%" viewBox="0 0 896 400" enable-background="new 0 0 896 400" xml:space="preserve">
<path fill="#000000" opacity="1.000000" stroke="none" 
	d="
M389.507568,31.661762 
	C395.258636,41.934933 395.838135,52.353191 393.607849,63.422260 
	C388.133942,90.589828 375.281860,114.086235 357.832001,135.086853 
	C342.080627,154.043274 325.353882,172.156082 305.106689,186.606873 
	C295.281067,193.619583 284.781494,199.271118 273.401184,203.293320 
	C272.647552,203.559692 271.940369,203.957596 270.799042,204.484940 
	C274.020111,207.806824 278.147247,208.858978 281.594421,210.928726 
	C293.986298,218.369141 301.925476,228.976547 305.247681,242.970413 
	C306.251373,247.198227 307.462036,248.443115 311.965729,246.215240 
	C326.233795,239.157150 339.582367,230.835068 351.393066,220.119797 
	C353.771301,217.962143 355.388885,215.361420 356.869629,212.490601 
	C361.655182,203.212585 368.018890,195.382339 378.761780,192.770370 
	C385.287415,191.183777 390.473724,192.971252 392.585266,196.832367 
	C395.687897,202.505692 394.784760,208.957840 389.789581,213.752350 
	C384.991547,218.357635 379.470886,221.530029 372.434631,221.368637 
	C367.017120,221.244370 365.878906,223.226700 368.563965,228.020706 
	C372.867188,235.703842 380.453522,237.460602 388.244629,237.607544 
	C403.591675,237.897003 417.678802,232.728653 431.300049,226.223618 
	C439.449158,222.331863 447.061615,217.571686 453.504181,211.130127 
	C454.683502,209.950943 455.863739,208.801147 456.331299,207.096893 
	C461.542175,188.102951 470.233154,170.373383 476.446777,151.748276 
	C478.548828,145.447372 480.245117,138.992111 481.774780,132.524124 
	C483.611877,124.756264 480.138550,121.396973 472.267120,123.386436 
	C463.815125,125.522636 455.900940,129.106888 448.614594,133.878174 
	C440.235931,139.364731 432.347809,145.500519 425.628357,153.009750 
	C422.258331,156.775909 419.602417,160.957306 417.998444,165.788193 
	C417.011200,168.761414 416.808136,171.669250 418.417542,174.472656 
	C419.298157,176.006577 420.210266,177.542160 418.094177,178.701477 
	C415.999268,179.849197 414.486176,178.567535 413.502808,176.940109 
	C410.693237,172.290283 411.121002,167.306503 412.792084,162.479187 
	C415.970581,153.297241 422.931244,146.891876 429.924438,140.740005 
	C441.142822,130.871338 453.617462,122.958572 468.023376,118.451462 
	C469.766785,117.906021 471.515686,117.273323 473.310181,117.013092 
	C485.419830,115.257042 492.482056,122.441368 490.857819,134.626678 
	C488.992401,148.621201 483.437988,161.531906 479.213959,174.833008 
	C477.269379,180.956314 475.173218,187.031494 472.962555,193.679520 
	C475.769562,192.179626 476.009766,189.706451 477.141510,187.827377 
	C493.002991,161.491348 510.208435,136.232086 534.192688,116.367592 
	C539.247070,112.181442 544.723816,108.671074 550.778076,106.284836 
	C563.491943,101.273720 574.118225,109.408516 572.389526,122.975517 
	C570.747009,135.866058 563.947388,146.300797 555.310852,155.642990 
	C545.082153,166.707489 533.440735,176.061218 519.506287,184.478745 
	C542.631165,190.114548 551.168884,204.796143 547.456055,228.052261 
	C556.905579,223.024429 565.599304,218.734344 572.286438,211.761887 
	C575.572327,208.335770 575.521667,202.796158 576.859131,198.191406 
	C583.731079,174.531815 593.470642,152.184006 606.909729,131.499390 
	C610.462524,126.031143 614.856567,121.220886 619.254456,116.439415 
	C621.875427,113.589844 625.152161,111.538330 628.641418,109.910088 
	C632.291687,108.206734 636.074829,107.690361 639.541687,110.270966 
	C643.200012,112.994141 643.737488,116.841423 642.860901,121.056480 
	C640.406311,132.858902 634.404358,143.064346 628.280457,153.187012 
	C617.268982,171.388702 603.985657,187.767395 588.397827,202.259964 
	C587.139465,203.429932 586.281128,204.801468 585.868469,206.475082 
	C582.115540,221.695801 579.082214,237.017944 579.348022,252.802109 
	C579.367615,253.962311 579.468262,255.137466 579.688171,256.275360 
	C581.191101,264.051758 585.468628,266.371582 592.575317,262.855530 
	C603.115906,257.640503 610.756470,248.867615 618.459473,240.396622 
	C627.957092,229.952057 637.841248,219.677658 643.150940,206.149246 
	C643.684387,204.790070 644.695618,203.578079 645.648315,202.433624 
	C646.956055,200.862671 648.736206,200.481339 650.632385,201.147018 
	C652.644775,201.853485 653.237732,203.513107 653.300476,205.504669 
	C653.366028,207.586075 652.540466,209.414795 651.791260,211.257950 
	C649.722046,216.348480 647.602356,221.403458 646.231201,226.761200 
	C645.507385,229.589310 645.373108,232.348846 647.744080,234.034882 
	C650.299011,235.851746 652.386536,233.500351 654.351685,232.046799 
	C662.921692,225.707947 668.134949,216.830032 672.798462,207.542328 
	C673.919495,205.309799 674.942871,203.015762 676.233521,200.884659 
	C677.316528,199.096512 678.927368,197.804779 681.233459,198.502808 
	C683.465637,199.178467 684.174805,201.001297 684.338745,203.147919 
	C684.590881,206.449753 683.223206,209.344757 682.018738,212.257538 
	C679.407715,218.571884 676.825439,224.887878 675.617126,231.662521 
	C674.168945,239.782913 677.495056,243.213043 685.563293,241.377151 
	C694.282959,239.392990 701.913879,234.820648 709.427673,230.187546 
	C715.235046,226.606674 720.730469,222.557083 726.024475,218.223038 
	C729.464844,215.406479 732.363525,212.342621 733.536682,207.933365 
	C733.707031,207.292953 733.927246,206.647171 734.240356,206.066452 
	C735.897095,202.993912 737.409546,199.016327 741.766418,200.248810 
	C746.300781,201.531494 745.292297,205.558380 744.360046,209.766312 
	C746.809448,208.213425 747.790710,206.169937 748.937012,204.368332 
	C751.389771,200.513367 754.453491,197.248337 758.142761,194.608490 
	C764.528198,190.039474 771.900085,193.143982 773.114258,200.939941 
	C773.832642,205.552734 772.891724,210.102676 771.348389,215.825195 
	C774.384277,212.504120 776.446350,210.153290 778.619385,207.909851 
	C779.769836,206.722061 781.003052,205.546768 782.391174,204.670197 
	C785.845215,202.489044 789.569336,200.558578 793.610535,202.864258 
	C797.523621,205.096863 798.232971,209.093079 798.319153,213.255936 
	C798.400635,217.190811 796.909302,220.743881 795.837280,224.413483 
	C793.030701,234.019501 796.545715,238.925842 806.603149,238.928986 
	C819.154114,238.932892 829.606140,232.888062 839.850586,226.570435 
	C845.378662,223.161346 850.710693,219.436920 855.395691,214.865646 
	C856.527771,213.761108 857.582458,212.248550 859.631226,212.703049 
	C861.195251,215.037888 859.363525,216.432129 858.087036,217.834976 
	C845.666382,231.484299 830.955261,241.379990 812.541504,244.852814 
	C806.594727,245.974380 800.615723,245.698547 794.891541,243.157822 
	C785.759277,239.104401 782.166382,231.612885 784.941345,221.982590 
	C785.447449,220.226318 786.090393,218.504898 786.752930,216.799576 
	C787.412659,215.101608 788.708374,213.050598 786.900452,211.785690 
	C784.739746,210.273911 783.292175,212.588562 781.915161,213.895554 
	C775.056885,220.405182 770.229126,228.367630 765.855347,236.640717 
	C764.281189,239.618317 763.669739,243.803268 758.866455,243.029495 
	C755.203735,242.439499 753.033875,238.161224 753.765198,232.888412 
	C754.649414,226.513214 758.117004,221.069885 760.574829,215.262955 
	C762.736450,210.156082 765.760925,205.214996 764.482971,199.350876 
	C761.785645,198.435135 760.678894,200.170563 759.545776,201.488617 
	C751.911560,210.368576 745.643188,220.178574 740.128723,230.479874 
	C739.124573,232.355484 738.739685,235.043716 735.956726,234.710892 
	C732.935303,234.349594 730.730835,232.406204 730.098022,229.328156 
	C729.642212,227.110962 729.675354,224.793259 729.413757,221.578064 
	C723.069946,226.699661 717.505249,231.635056 711.329529,235.764923 
	C703.201782,241.200180 694.456909,245.181946 684.923889,247.273666 
	C674.217712,249.622818 667.517639,244.867264 665.805359,233.996094 
	C665.656616,233.051849 665.515137,232.106476 665.256348,230.418762 
	C660.016907,234.982513 655.797791,240.190338 648.988831,241.119522 
	C643.187988,241.911118 639.467651,238.698120 635.774414,229.707382 
	C633.300598,230.351349 632.259644,232.564606 630.877869,234.297791 
	C621.610962,245.921646 611.993652,257.184967 599.523926,265.596832 
	C598.695801,266.155457 597.883362,266.739807 597.034485,267.265015 
	C584.683777,274.906189 573.862000,270.337372 570.890137,256.030762 
	C568.693665,245.457214 569.308472,234.830048 571.102417,224.245621 
	C571.268372,223.266571 571.450134,222.287674 571.547913,221.301117 
	C571.576660,221.011047 571.341492,220.694870 571.220642,220.372772 
	C569.646545,219.743073 568.785156,221.023621 567.727905,221.704407 
	C566.047729,222.786285 564.525513,224.181976 562.736389,225.015213 
	C550.064270,230.917007 541.782959,240.664169 533.715027,252.155518 
	C521.626404,269.373566 503.603882,280.544739 484.382294,289.328094 
	C469.605957,296.080200 454.303711,299.979797 437.953613,299.283112 
	C434.763123,299.147186 431.627777,298.767487 428.587494,297.899963 
	C417.404144,294.708740 414.888306,285.322937 423.129425,277.081116 
	C429.607239,270.602753 437.804871,266.792572 446.095062,263.233032 
	C467.880646,253.879028 490.906891,248.242752 513.336243,240.817245 
	C517.440308,239.458527 521.441162,237.700043 525.626099,236.693420 
	C532.086731,235.139404 535.627930,231.073547 536.861816,224.840210 
	C538.630859,215.903473 539.860535,206.924210 533.449280,199.100677 
	C527.666260,192.043671 515.621826,189.037766 506.402313,192.152679 
	C502.776855,193.377579 499.211060,194.805954 495.533783,195.842529 
	C492.369232,196.734589 489.070404,196.174728 488.180481,192.673386 
	C487.399506,189.600662 490.047760,188.035126 492.781769,187.147507 
	C518.829285,178.690964 538.209045,161.350876 554.828674,140.403259 
	C559.543457,134.460648 563.146912,127.869835 563.850647,120.137604 
	C564.578064,112.144218 560.689697,109.192741 553.159546,112.142349 
	C543.333679,115.991158 535.622437,122.946709 528.161011,130.118576 
	C508.263916,149.243683 493.298401,172.017181 479.698334,195.812866 
	C471.913116,209.434479 464.774353,223.315430 460.321655,238.442200 
	C459.088989,242.629852 458.652405,246.900940 458.532593,251.231140 
	C458.448578,254.267654 457.774933,257.182739 454.163849,257.410950 
	C450.736725,257.627533 449.684723,254.691177 449.318268,252.049500 
	C448.179504,243.840637 450.503693,235.850281 451.274200,227.759399 
	C451.538696,224.981812 452.137695,222.236099 452.661041,218.998383 
	C449.172699,219.741455 447.213379,222.104340 444.911682,223.770233 
	C427.707825,236.221924 408.460175,242.916336 387.331116,244.117981 
	C372.419861,244.966003 359.502075,241.928406 354.547546,224.536926 
	C351.490662,227.264313 348.973083,229.584000 346.377808,231.813263 
	C335.778687,240.917572 323.317810,246.985413 310.999542,253.242935 
	C308.039734,254.746506 306.476410,256.503723 305.966339,259.915985 
	C303.554840,276.048340 293.382446,287.671722 282.071869,298.100281 
	C269.486359,309.704407 254.172043,316.823334 237.601532,320.910004 
	C229.355255,322.943726 220.875244,324.348297 212.636230,320.489716 
	C205.509293,317.151947 203.856430,311.380859 207.744797,304.463226 
	C211.018234,298.639618 215.914337,294.433899 221.043015,290.408997 
	C223.117355,288.781097 225.191528,287.153015 227.294846,285.502197 
	C226.072433,282.649231 223.536804,281.838379 221.508865,280.572418 
	C206.214615,271.024597 192.308228,259.580200 177.888306,248.838165 
	C158.724792,234.562408 139.279892,220.727402 115.384209,215.385345 
	C93.389862,210.468338 71.271637,208.274170 49.242481,215.144775 
	C27.909048,221.798386 16.452490,243.776138 24.970972,263.302094 
	C25.610657,264.768372 26.203257,266.317535 24.362543,267.150177 
	C22.636854,267.930817 21.657461,266.640137 20.850941,265.235718 
	C14.747305,254.607162 14.229835,243.400314 19.424641,232.632629 
	C30.625555,209.415649 50.306313,198.494858 75.370712,196.811966 
	C100.332924,195.135925 122.235191,205.063049 143.737717,216.016174 
	C160.776596,224.695602 175.406387,236.839111 190.378464,248.519104 
	C203.628311,258.855591 216.643341,269.538239 231.367981,277.863220 
	C234.641144,279.713776 237.413010,280.126038 240.696106,278.415436 
	C256.971405,269.935516 274.186401,263.589142 291.025269,256.391266 
	C295.089325,254.654083 296.378052,252.107407 295.401947,247.757278 
	C290.703949,226.820419 276.226349,216.446228 256.688965,211.294952 
	C249.876923,209.498871 242.875702,209.195770 235.968643,208.158951 
	C233.947769,207.855576 231.004395,207.864075 231.079422,204.985199 
	C231.162628,201.792984 234.149460,202.104034 236.430191,201.891510 
	C254.161850,200.239197 271.269531,196.227448 286.842865,187.323914 
	C297.984314,180.954147 308.062286,173.086441 317.339417,164.141266 
	C333.816345,148.253922 348.815063,131.068726 361.874481,112.327751 
	C374.463348,94.262024 384.085175,74.723434 385.298859,52.176083 
	C386.503601,29.795919 369.170105,23.523664 353.340790,28.597061 
	C341.746338,32.313156 332.743408,39.950611 324.002167,48.008537 
	C312.990662,58.159279 301.789581,68.098068 291.936218,79.443901 
	C271.642975,102.811012 254.014954,127.889107 240.726059,155.986465 
	C233.813202,170.602692 227.121078,185.284439 222.525177,200.770599 
	C219.725464,210.204330 218.774521,220.015610 220.859604,229.872223 
	C221.438568,232.609100 222.162796,235.389191 220.541855,238.359283 
	C216.352631,238.099503 214.803848,234.701340 213.252640,231.833191 
	C208.551102,223.140076 208.020416,213.756973 209.374161,204.145767 
	C212.403488,182.638565 221.275742,163.067612 229.246979,143.156998 
	C235.859726,126.639572 244.207581,110.825287 249.375885,93.731522 
	C251.265747,87.480995 252.226578,81.122910 251.135605,74.525337 
	C248.917496,61.111397 240.056564,52.909954 226.447006,52.298626 
	C214.296738,51.752846 202.577744,53.981186 191.319824,58.580444 
	C166.501709,68.719536 147.129166,85.527779 132.688782,107.843292 
	C124.629852,120.297173 119.946228,134.139725 119.965012,149.298004 
	C119.985764,166.045761 127.795074,178.889465 139.958862,189.479141 
	C146.395950,195.083237 154.070053,198.867813 161.487747,203.000961 
	C163.116074,203.908279 165.316360,204.359177 165.792114,206.593704 
	C165.370544,207.709488 164.526855,207.945679 163.718552,207.654968 
	C145.620590,201.146255 129.475739,192.059235 119.669930,174.493576 
	C111.584145,160.009079 111.704651,144.893906 116.010040,129.444397 
	C125.166664,96.586670 145.146713,72.400261 174.812866,55.885780 
	C188.827438,48.084194 203.576859,42.587852 219.704254,42.189438 
	C245.563934,41.550602 266.724121,57.024410 261.035187,87.760826 
	C259.127228,98.069160 255.883759,107.891891 251.982574,117.625107 
	C258.537506,108.494759 264.850037,99.178139 271.694885,90.270576 
	C289.024261,67.719040 308.766205,47.491905 331.702026,30.603708 
	C341.447266,23.428070 352.109711,18.051905 364.849548,18.448240 
	C375.197113,18.770151 383.671112,22.282637 389.507568,31.661762 
M467.582916,261.172668 
	C462.294189,263.174744 457.008636,265.185333 451.716003,267.177002 
	C443.571411,270.241913 435.916077,274.231445 428.978760,279.496155 
	C426.388184,281.462097 424.076385,284.293335 424.823639,287.486969 
	C425.647217,291.006592 429.340515,291.472565 432.575317,291.689484 
	C439.589539,292.159851 446.573975,291.671722 453.388367,290.051453 
	C480.860565,283.519257 504.123688,269.721619 523.305725,249.027496 
	C525.228516,246.953079 526.977051,244.721649 528.325928,241.671005 
	C507.874847,248.225189 488.099945,254.562683 467.582916,261.172668 
M252.225540,295.542786 
	C247.349442,294.374329 242.751007,292.436401 238.376541,290.064423 
	C235.669098,288.596375 233.427765,288.877380 230.961960,290.441223 
	C225.036041,294.199554 219.476288,298.396240 215.123489,303.946594 
	C213.231934,306.358551 210.566345,308.909241 212.067047,312.353851 
	C213.668350,316.029449 217.298721,316.637909 220.902145,316.711548 
	C234.116943,316.981628 245.987137,312.505493 257.214874,306.070343 
	C261.266357,303.748230 265.676544,301.801727 269.562866,297.492828 
	C263.424072,297.080994 258.161774,296.927612 252.225540,295.542786 
M594.073792,181.505035 
	C593.376770,183.975296 592.679749,186.445557 591.944519,189.051163 
	C594.150940,189.104736 595.075012,187.708817 595.989563,186.673233 
	C610.930298,169.755615 624.320068,151.765884 633.620239,131.041016 
	C635.179810,127.565605 636.577759,123.955788 636.809448,120.059151 
	C637.031067,116.329712 635.262573,115.454018 632.239807,117.228889 
	C628.930115,119.172180 626.053772,121.617241 623.709595,124.785309 
	C611.015015,141.941528 601.972778,160.989014 594.073792,181.505035 
M274.961182,286.528717 
	C285.564240,282.328674 294.183502,271.120941 293.012238,262.371399 
	C276.760040,268.649811 260.592163,274.710754 245.580963,283.831512 
	C254.896622,288.762451 264.273682,290.622345 274.961182,286.528717 
M385.132660,199.221252 
	C378.707458,199.647949 370.343140,206.405746 368.645416,212.457214 
	C367.812347,215.426727 369.370300,216.420135 371.909882,216.594620 
	C378.052032,217.016586 386.351532,211.338516 388.173370,205.511108 
	C388.995636,202.880951 388.891663,200.578354 385.132660,199.221252 
z"/>
<path fill="#000000" opacity="1.000000" stroke="none" 
	d="
M611.068481,319.029602 
	C613.250244,323.867737 615.267334,328.367706 617.763733,333.936829 
	C620.403870,328.294922 622.507751,323.665283 624.739624,319.098206 
	C625.580872,317.376709 626.228577,314.868256 628.768005,315.393890 
	C631.570740,315.974030 631.170105,318.620544 631.173645,320.751282 
	C631.183472,326.584106 631.178284,332.417877 631.075378,338.249451 
	C631.040466,340.230530 631.007629,342.691528 628.168091,342.537109 
	C625.692322,342.402466 625.813110,340.143982 625.782593,338.302704 
	C625.747498,336.186249 625.774475,334.068756 624.849548,331.687622 
	C623.734863,334.179840 622.642883,336.682587 621.497070,339.160400 
	C620.794189,340.680389 620.075317,342.277649 618.070496,342.385284 
	C615.972961,342.497925 615.290283,340.834778 614.559265,339.344177 
	C613.471069,337.125397 612.455566,334.870911 610.522461,332.699768 
	C610.377930,335.020294 610.244995,337.341583 610.084778,339.661041 
	C609.967407,341.359894 609.225952,342.613098 607.356384,342.546906 
	C605.710754,342.488586 605.023438,341.158234 605.003174,339.785889 
	C604.897339,332.625702 604.866272,325.463165 604.937866,318.302734 
	C604.950867,316.999176 605.500488,315.483185 607.092468,315.308136 
	C609.448792,315.049164 609.912048,317.236694 611.068481,319.029602 
z"/>
<path fill="#000000" opacity="1.000000" stroke="none" 
	d="
M403.430573,328.541138 
	C404.239136,330.202759 404.914612,331.530212 405.795013,333.260406 
	C408.943451,329.965485 409.940979,325.917023 411.608643,322.244080 
	C412.362793,320.583069 413.015320,318.871613 413.848083,317.251984 
	C414.476898,316.029022 415.434448,315.016052 417.009491,315.411987 
	C418.336517,315.745605 418.865570,317.002289 418.881317,318.105286 
	C418.985779,325.410248 419.000916,332.717804 418.917389,340.023010 
	C418.901703,341.396210 418.150024,342.665985 416.404175,342.464813 
	C414.870087,342.288055 414.061951,341.260162 413.955322,339.766632 
	C413.790802,337.463043 413.712250,335.153290 413.569977,332.299011 
	C411.368744,333.907684 411.201263,336.221191 410.093384,337.912842 
	C408.878510,339.767883 408.599030,342.870667 405.671631,342.661285 
	C403.135956,342.479919 402.868011,339.684418 401.954163,337.801788 
	C400.968781,335.771942 400.634552,333.400940 398.136383,331.089111 
	C398.136383,334.382019 398.195831,336.955139 398.114655,339.523773 
	C398.063934,341.127899 397.462891,342.634308 395.604828,342.669250 
	C393.762299,342.703918 392.992676,341.253418 392.979401,339.640472 
	C392.920532,332.493011 392.939606,325.344513 392.992126,318.196838 
	C393.002563,316.776489 393.618225,315.520447 395.189301,315.278351 
	C396.749664,315.037933 397.656982,316.118439 398.250427,317.359253 
	C399.970978,320.956879 401.620239,324.588623 403.430573,328.541138 
z"/>
<path fill="#000000" opacity="1.000000" stroke="none" 
	d="
M485.343231,328.114380 
	C484.845551,340.043152 477.304321,345.730469 466.242126,343.027496 
	C464.392975,342.575684 463.132782,341.563080 463.109894,339.702637 
	C463.020325,332.410889 463.040985,325.117004 463.106506,317.824707 
	C463.119659,316.361969 464.120911,315.512329 465.532104,315.034027 
	C475.255341,311.738220 484.000763,317.301331 485.343231,328.114380 
M469.244293,320.734619 
	C467.004425,325.466431 468.412109,330.451202 468.296082,335.321289 
	C468.243744,337.517365 470.044281,337.786407 471.809509,337.888916 
	C477.356445,338.211212 480.380829,334.726746 480.201111,328.171173 
	C480.026550,321.802917 477.155396,319.606812 469.244293,320.734619 
z"/>
<path fill="#000000" opacity="1.000000" stroke="none" 
	d="
M660.765869,315.239990 
	C666.131958,319.645630 668.876038,325.843079 673.608704,331.327057 
	C674.934753,326.623352 674.179443,322.609833 674.650696,318.709259 
	C674.831787,317.210449 674.729004,315.392944 676.738098,315.305756 
	C679.020630,315.206665 679.260864,317.063263 679.263367,318.815186 
	C679.273071,325.480713 679.262817,332.146362 679.234253,338.811829 
	C679.227722,340.335815 679.142883,342.025482 677.463623,342.613647 
	C675.499390,343.301666 674.397156,341.745148 673.412354,340.408875 
	C670.262878,336.135284 667.173523,331.817291 663.772156,327.117310 
	C662.398254,329.129272 662.342896,331.016724 662.513245,332.935791 
	C662.615967,334.093323 663.069519,335.260956 662.965393,336.387054 
	C662.750183,338.715179 663.630310,342.384491 660.362732,342.475403 
	C656.791687,342.574768 657.781189,338.880493 657.708557,336.567993 
	C657.530762,330.907837 657.537659,325.241791 657.484497,319.577972 
	C657.464600,317.460083 657.714600,315.494812 660.765869,315.239990 
z"/>
<path fill="#000000" opacity="1.000000" stroke="none" 
	d="
M709.652283,342.405212 
	C706.428650,342.966827 705.938110,340.972717 705.906189,338.869659 
	C705.807800,332.380432 705.825439,325.889160 705.835022,319.398773 
	C705.837280,317.892792 705.858398,316.141876 707.465515,315.501740 
	C709.468323,314.703949 710.438965,316.504822 711.430847,317.767426 
	C714.581726,321.777985 717.658142,325.847076 721.014526,330.220886 
	C723.299622,326.445984 722.067444,322.727875 722.444397,319.238556 
	C722.643860,317.391937 722.429871,315.183655 724.943848,315.126251 
	C727.596436,315.065613 727.350403,317.285309 727.347717,319.143524 
	C727.338623,325.467499 727.378235,331.791626 727.347351,338.115417 
	C727.339417,339.741211 727.594116,341.679565 725.473083,342.260345 
	C723.287720,342.858704 722.088379,341.363190 721.136047,339.700958 
	C718.577087,335.234375 715.583740,331.092926 711.937195,326.871948 
	C709.666443,332.073212 712.675232,337.516113 709.652283,342.405212 
z"/>
<path fill="#000000" opacity="1.000000" stroke="none" 
	d="
M429.252075,333.188110 
	C428.985565,331.642395 428.742096,330.490051 428.737213,329.336700 
	C428.703278,321.306641 433.953156,315.171021 440.988037,314.954895 
	C447.473145,314.755676 453.466522,320.968903 453.910858,328.351807 
	C454.362701,335.859436 448.576813,342.602142 441.276917,343.075012 
	C435.922485,343.421844 432.208679,340.456757 429.252075,333.188110 
M445.558014,321.826263 
	C440.409180,319.366943 437.579132,319.887390 435.337341,323.705841 
	C433.012939,327.665009 433.918182,334.010559 437.163788,336.508881 
	C439.999268,338.691437 444.264526,338.134521 446.409760,335.117981 
	C449.455536,330.835114 449.554901,326.517792 445.558014,321.826263 
z"/>
<path fill="#000000" opacity="1.000000" stroke="none" 
	d="
M583.099609,314.859314 
	C586.245789,314.850403 588.911987,314.801056 591.576660,314.845367 
	C593.307251,314.874146 595.128418,315.105316 595.093384,317.399658 
	C595.063477,319.362274 593.356689,319.726105 591.862061,319.813873 
	C589.038635,319.979614 586.202515,319.926666 583.371765,319.971008 
	C581.161560,320.005646 579.429077,320.501831 579.433655,323.291718 
	C579.438049,325.989197 580.927063,326.709076 583.273621,326.666992 
	C584.937500,326.637146 586.605835,326.705353 588.268372,326.797272 
	C589.517151,326.866364 590.643555,327.279755 590.631714,328.783417 
	C590.620850,330.165253 589.659790,330.908112 588.398743,331.039734 
	C586.581482,331.229309 584.745667,331.256744 582.916504,331.312469 
	C580.192444,331.395477 579.704956,333.321747 579.610657,335.429810 
	C579.501404,337.871185 581.367676,337.907623 583.062500,337.955597 
	C585.892456,338.035614 588.728088,337.965454 591.554504,338.101166 
	C593.213928,338.180878 595.149597,338.332703 595.041809,340.690063 
	C594.955017,342.587830 593.377563,343.079895 591.803650,343.090240 
	C587.307373,343.119751 582.808594,343.102722 578.314331,342.976044 
	C575.895447,342.907898 574.764954,341.433777 574.769104,339.048218 
	C574.780945,332.217987 574.530884,325.374512 574.880188,318.561737 
	C575.152832,313.243439 579.664917,315.357971 583.099609,314.859314 
z"/>
<path fill="#000000" opacity="1.000000" stroke="none" 
	d="
M742.975281,322.101288 
	C744.494141,319.440277 744.368958,315.393982 747.920959,315.509979 
	C751.183533,315.616486 751.711792,319.361969 752.881714,321.807465 
	C755.468018,327.213806 757.787292,332.748505 760.181152,338.245819 
	C760.831482,339.739288 761.922852,341.474335 759.628174,342.476746 
	C757.635498,343.347260 756.486938,341.977722 755.726990,340.375153 
	C753.460083,335.595154 751.258301,330.784241 748.884399,325.669281 
	C745.946350,327.425598 745.741394,330.304596 744.538513,332.510101 
	C743.665100,334.111481 743.144958,335.902344 742.317261,337.532532 
	C741.099182,339.931396 740.258606,344.029480 736.759766,342.363464 
	C733.591125,340.854706 736.791992,338.045105 737.544617,335.945740 
	C739.174133,331.400970 741.055115,326.946350 742.975281,322.101288 
z"/>
<path fill="#000000" opacity="1.000000" stroke="none" 
	d="
M500.258850,320.385864 
	C501.478394,318.062195 501.895569,315.099976 504.796997,315.296051 
	C507.294891,315.464783 507.717621,318.206116 508.584656,320.109253 
	C511.201721,325.853851 513.750427,331.630463 516.250366,337.427124 
	C516.997925,339.160614 518.664429,341.419281 516.130005,342.652679 
	C513.343201,344.008881 512.481995,341.247833 511.590942,339.359131 
	C509.404327,334.724426 507.333832,330.034973 504.986176,324.859558 
	C502.498566,326.964630 501.847351,329.516663 500.877350,331.848785 
	C499.919922,334.150696 499.109711,336.515350 498.109772,338.797638 
	C497.231964,340.801056 496.094757,343.294342 493.487335,342.254395 
	C490.247406,340.962219 492.641571,338.540131 493.320404,336.811432 
	C495.446350,331.397705 497.824982,326.083191 500.258850,320.385864 
z"/>
<path fill="#000000" opacity="1.000000" stroke="none" 
	d="
M558.964539,320.059052 
	C556.531006,320.308289 553.912170,319.334290 553.287109,322.439728 
	C552.489197,326.404236 554.980835,326.769928 558.005798,326.720734 
	C559.657043,326.693878 562.194641,325.826843 562.319153,328.598877 
	C562.449097,331.491974 559.862427,331.378967 557.939331,331.234802 
	C554.221252,330.956055 552.746460,332.545044 553.048340,336.164948 
	C553.157837,337.477325 553.071533,338.823639 552.916443,340.135803 
	C552.744141,341.593384 551.946533,342.675629 550.349915,342.624573 
	C548.982666,342.580811 548.159912,341.496643 548.147766,340.313416 
	C548.069946,332.692322 548.029236,325.067932 548.194031,317.449310 
	C548.238037,315.414764 550.081360,314.956665 551.880371,314.950989 
	C555.198792,314.940521 558.517517,314.904602 561.835571,314.933960 
	C563.619385,314.949738 565.966553,314.580200 566.153015,317.090057 
	C566.366028,319.957886 563.804993,319.746918 561.883850,319.980316 
	C561.064087,320.079926 560.226624,320.033722 558.964539,320.059052 
z"/>
<path fill="#000000" opacity="1.000000" stroke="none" 
	d="
M642.344727,316.878540 
	C645.436157,313.562256 646.883057,315.810303 646.989380,318.308350 
	C647.291565,325.404144 647.108948,332.522156 647.044067,339.630768 
	C647.029358,341.239502 646.305237,342.768951 644.490906,342.689026 
	C642.416199,342.597626 641.892700,340.808838 641.902893,339.076141 
	C641.945679,331.807220 642.079956,324.538849 642.344727,316.878540 
z"/>
<path fill="#000000" opacity="1.000000" stroke="none" 
	d="
M695.221497,333.887939 
	C695.164307,336.364349 695.227478,338.373352 695.006042,340.350494 
	C694.850220,341.742432 694.103760,342.935272 692.399902,342.751068 
	C690.960693,342.595459 690.531677,341.527161 690.527344,340.242096 
	C690.502991,333.085144 690.448853,325.927856 690.505859,318.771515 
	C690.517334,317.330261 690.554688,315.393829 692.583984,315.352203 
	C694.768311,315.307404 695.152039,317.171967 695.174011,318.912384 
	C695.235107,323.743347 695.210754,328.575348 695.221497,333.887939 
z"/>
</svg>